<?xml version="1.0" standalone="no"?>
<!DOCTYPE svg PUBLIC "-//W3C//DTD SVG 20010904//EN"
 "http://www.w3.org/TR/2001/REC-SVG-20010904/DTD/svg10.dtd">
<svg version="1.0" xmlns="http://www.w3.org/2000/svg"
 width="512.000000pt" height="512.000000pt" viewBox="0 0 512.000000 512.000000"
 preserveAspectRatio="xMidYMid meet">
<metadata>
Created by potrace 1.11, written by Peter Selinger 2001-2013
</metadata>
<g transform="translate(0.000000,512.000000) scale(0.100000,-0.100000)"
fill="#000000" stroke="none">
<path d="M2551 4111 c-7 -5 -9 -11 -4 -14 5 -3 15 -2 22 2 7 5 9 11 4 14 -5 3
-15 2 -22 -2z"/>
<path d="M2553 4083 c-7 -3 -13 -11 -13 -18 0 -7 -9 -15 -21 -18 -16 -4 -18
-3 -8 9 25 31 -6 12 -42 -26 l-39 -40 1 -592 c1 -523 10 -920 19 -773 1 28 2
54 1 59 -1 4 4 14 10 22 9 11 8 14 -2 14 -9 1 -7 6 6 16 15 12 16 18 7 21 -10
4 -9 10 5 26 10 11 12 17 5 13 -11 -7 -12 -4 -3 13 9 16 9 21 0 21 -8 0 -8 4
-1 13 5 6 12 21 15 32 2 11 6 -95 7 -235 2 -140 3 -285 4 -322 l1 -68 202 0
c124 0 204 -4 208 -10 3 -5 1 -10 -5 -10 -8 0 -10 -43 -9 -145 l3 -145 63 0
c35 0 63 -4 63 -10 0 -6 -28 -10 -63 -10 l-63 0 -2 -144 c-2 -129 -1 -146 15
-156 15 -9 15 -11 1 -6 -15 4 -16 -29 -17 -423 l-2 -428 33 3 33 3 -32 -11
c-36 -12 -47 -48 -15 -48 21 0 310 48 333 55 9 3 19 -1 22 -10 7 -16 37 -10
37 9 0 7 65 23 172 41 131 23 164 31 137 36 -41 7 -27 14 56 28 33 5 103 19
155 30 169 35 290 55 296 48 11 -10 -5 -25 -34 -31 -15 -2 -54 -8 -87 -12 -42
-4 -54 -9 -40 -14 11 -4 35 -3 55 1 40 9 122 0 114 -12 -3 -5 -14 -9 -25 -9
-24 0 -25 -17 -1 -24 9 -3 -7 -4 -36 -2 -44 3 -52 1 -47 -12 4 -12 -3 -14 -40
-10 -24 3 -42 2 -40 -3 3 -4 -3 -10 -12 -13 -25 -7 -298 -60 -492 -96 -91 -17
-167 -33 -170 -36 -3 -3 -6 -17 -6 -31 -1 -28 -11 -28 165 2 47 8 155 26 240
41 198 33 201 34 193 48 -4 8 -3 8 6 0 9 -8 27 -8 69 2 31 8 68 14 82 14 24
-1 24 -1 6 -15 -17 -13 -18 -15 -3 -15 9 0 17 -4 17 -9 0 -14 -18 -23 -24 -12
-3 4 -17 9 -32 9 -17 0 -22 -3 -13 -9 7 -4 16 -6 20 -3 4 2 9 -3 12 -11 4 -10
1 -12 -10 -8 -11 5 -14 3 -9 -6 6 -10 -3 -11 -40 -6 -27 4 -57 9 -66 11 -13 4
-16 0 -13 -16 4 -19 1 -21 -21 -16 -19 5 -24 3 -18 -5 5 -9 -2 -10 -27 -6 -19
4 -28 3 -22 -1 17 -11 -130 -35 -158 -27 -13 4 -19 3 -15 -3 6 -10 -89 -27
-103 -17 -5 3 -11 1 -13 -3 -1 -5 -19 -12 -38 -15 -25 -5 -31 -4 -20 3 12 8
11 10 -6 10 -12 0 -27 -7 -35 -16 -9 -11 -22 -14 -41 -10 -15 3 -41 3 -58 0
-25 -5 -30 -11 -30 -35 0 -28 2 -29 50 -29 28 0 64 7 80 15 19 10 31 11 35 5
4 -6 10 -8 15 -5 6 4 380 75 394 75 2 0 12 -8 23 -18 28 -24 7 -44 -38 -35
-23 4 -30 3 -25 -5 4 -7 2 -10 -6 -7 -7 3 -86 -8 -176 -23 -146 -25 -164 -26
-172 -13 -8 14 -9 14 -10 1 0 -9 13 -23 29 -33 16 -9 41 -31 56 -48 l26 -32
109 17 c74 11 116 14 127 7 16 -8 15 -10 -7 -19 -14 -6 -65 -16 -113 -23 -57
-8 -91 -18 -94 -26 -10 -25 5 -26 89 -9 101 20 99 20 91 0 -3 -8 -11 -13 -19
-10 -7 3 -14 1 -16 -4 -2 -5 -32 -13 -68 -17 l-65 -8 -3 -52 c-3 -48 -1 -51
18 -46 11 3 20 0 20 -6 0 -6 -9 -11 -20 -11 -13 0 -31 -17 -52 -51 -17 -28
-49 -64 -71 -80 l-40 -29 846 0 847 0 0 455 0 455 -39 -3 c-22 -1 -43 -6 -47
-10 -4 -4 -20 -7 -36 -7 -25 0 -28 4 -28 33 -1 27 -2 29 -11 14 -9 -15 -12
-15 -25 -3 -19 20 -18 26 5 26 11 0 23 5 27 11 9 15 9 137 1 146 -4 3 -7 -1
-7 -10 0 -9 -5 -17 -11 -17 -8 0 -8 -4 -1 -13 7 -9 8 -23 3 -43 -5 -16 -10
-22 -10 -13 -1 21 -28 32 -34 15 -3 -7 -23 -18 -45 -23 -38 -10 -41 -9 -47 14
-3 13 -3 28 0 33 4 6 -2 10 -12 10 -11 0 -25 6 -32 13 -8 6 -11 7 -8 1 7 -12
-52 -12 -72 0 -6 4 -11 2 -11 -5 0 -7 -3 -9 -6 -6 -4 4 7 21 25 39 17 17 31
35 31 40 0 4 7 5 15 2 8 -4 15 -1 15 6 0 10 3 10 15 0 13 -11 14 -10 9 4 -3 9
-14 15 -23 14 -10 -2 -16 3 -15 14 1 10 -4 14 -12 11 -7 -2 -21 1 -31 7 -16
10 -16 11 0 6 26 -8 21 3 -7 14 -19 7 -22 14 -18 35 4 26 7 27 46 20 22 -4 52
-9 66 -10 14 -2 66 -15 115 -29 78 -22 91 -23 101 -11 15 20 22 19 27 -2 3
-13 5 -10 6 7 1 19 4 21 13 12 7 -7 20 -12 29 -12 9 0 19 -7 23 -15 4 -11 -2
-14 -24 -11 -30 3 -40 -11 -32 -46 3 -14 13 -18 40 -17 l37 1 -30 8 -30 8 28
1 c38 1 34 19 -5 24 l-33 4 33 1 c27 2 32 6 32 27 0 29 -23 40 -145 72 -44 12
-127 34 -185 49 -104 27 -124 38 -115 62 5 15 -7 16 -21 2 -7 -7 -22 -5 -48 5
-35 15 -37 18 -23 33 16 17 17 21 17 46 0 15 149 31 164 16 5 -5 9 -27 10 -49
1 -38 2 -40 39 -47 21 -3 41 -3 44 0 4 3 -1 6 -10 6 -12 0 -17 8 -17 26 0 24
2 26 38 21 20 -3 56 -11 80 -18 33 -10 45 -11 51 -1 7 12 20 11 81 -7 19 -6
36 -11 37 -11 2 0 3 20 3 45 0 25 -4 45 -10 45 -5 0 -10 7 -10 15 0 8 5 15 10
15 6 0 10 33 10 79 0 75 -1 80 -22 84 l-23 4 23 2 c13 0 22 7 22 17 0 8 -4 13
-8 10 -4 -3 -25 -1 -45 3 -35 8 -36 8 -31 -18 5 -26 5 -26 -40 -23 -25 2 -46
8 -46 13 0 5 19 7 43 4 23 -3 36 -2 30 1 -29 13 -1 49 33 43 5 -1 23 0 39 1
30 2 30 2 5 10 -24 8 -24 8 -2 9 l22 1 0 340 0 340 -161 0 -160 0 3 -187 3
-187 -47 -4 c-45 -3 -48 -2 -48 21 l0 25 -180 -2 -180 -3 0 134 c0 110 -3 135
-15 139 -9 4 -15 19 -15 35 0 25 -4 29 -30 29 -20 0 -35 8 -46 25 -25 39 -72
34 -107 -10 -28 -35 -29 -37 -26 -163 3 -178 0 -247 -8 -238 -4 4 -9 233 -10
509 -2 276 -4 579 -6 672 -1 94 2 176 6 182 5 7 7 19 4 27 -4 11 -27 13 -117
8 -83 -4 -110 -2 -108 7 2 9 -25 13 -95 14 -67 1 -97 -2 -97 -9 0 -16 -34 -24
-107 -24 l-62 0 -7 -56 c-7 -59 -1 -186 11 -216 5 -13 2 -18 -9 -18 -9 0 -16
-8 -16 -20 0 -11 -7 -20 -15 -20 -8 0 -15 -9 -15 -19 0 -10 -7 -21 -15 -25 -8
-3 -15 -12 -15 -21 0 -8 -4 -15 -10 -15 -6 0 -10 -95 -10 -265 l0 -265 -39 0
-38 0 -5 -77 c-3 -43 -3 -131 0 -196 l5 -118 -34 3 c-19 2 -34 8 -34 14 0 14
-30 44 -44 44 -7 0 -11 -39 -11 -112 0 -61 -3 -108 -6 -105 -4 4 -7 31 -6 62
0 30 -4 58 -9 61 -5 3 -9 -4 -9 -15 0 -23 -15 -28 -26 -10 -3 6 0 15 7 20 12
8 12 11 -1 20 -12 8 -12 12 -2 16 10 4 9 9 -4 24 -16 18 -16 19 1 19 15 0 16
2 4 17 -11 13 -11 17 -1 21 10 3 10 7 0 20 -11 12 -11 16 0 20 10 3 10 7 1 19
-10 11 -10 16 0 22 10 6 7 13 -10 25 l-23 16 23 0 c21 0 22 2 10 17 -11 13
-11 17 -1 21 10 3 10 7 0 20 -11 12 -11 16 0 20 10 3 10 7 0 20 -11 12 -11 16
0 20 10 3 10 7 0 20 -11 12 -11 16 0 20 10 3 10 7 0 20 -11 12 -11 16 0 20 10
3 10 7 1 19 -10 11 -10 16 0 23 9 5 10 10 2 14 -6 4 -11 12 -11 17 0 6 5 7 10
4 6 -3 10 -2 10 4 0 5 -4 13 -10 16 -5 3 -10 11 -10 16 0 6 5 7 10 4 6 -3 10
-1 10 4 0 6 -4 11 -10 11 -5 0 -10 7 -10 16 0 8 5 12 10 9 6 -3 10 -1 10 4 0
6 -4 11 -10 11 -5 0 -10 7 -10 16 0 8 5 12 10 9 6 -3 10 -1 10 4 0 6 -4 11
-10 11 -5 0 -10 7 -10 16 0 8 5 12 10 9 6 -3 10 -1 10 4 0 6 -4 11 -9 11 -5 0
-12 7 -15 16 -4 12 -2 15 9 10 8 -3 15 -1 15 4 0 6 -4 10 -9 10 -5 0 -12 7
-15 16 -4 12 -2 15 9 10 8 -3 15 -1 15 4 0 6 -4 10 -9 10 -5 0 -12 7 -15 16
-4 12 -2 15 9 10 8 -3 15 -1 15 3 0 5 -7 11 -15 15 -8 3 -15 10 -15 17 0 6 7
8 17 5 16 -6 16 -6 0 12 -9 10 -17 22 -17 26 0 5 8 5 17 2 14 -6 14 -4 -2 14
-11 13 -15 24 -10 28 12 8 13 47 3 58 -15 14 -8 34 8 27 15 -6 15 -4 0 19 -10
16 -36 30 -73 42 -113 34 -106 22 -102 171 4 123 3 130 -16 133 -11 2 -24 10
-28 18 -4 7 -25 18 -46 24 l-39 10 -1 55 c0 33 4 53 9 50 6 -4 10 61 10 174 0
170 -1 181 -20 191 -11 6 -20 19 -20 28 0 11 -8 18 -20 19 -11 1 -20 -2 -20
-8 0 -5 -5 -9 -11 -9 -6 0 -9 6 -6 14 4 11 -7 16 -46 21 -29 3 -60 9 -71 12
-12 3 -16 1 -12 -6 5 -7 -1 -11 -14 -11 -12 0 -19 4 -15 9 9 16 -36 33 -62 24z
m22 -23 c3 -5 -1 -10 -9 -10 -9 0 -16 5 -16 10 0 6 4 10 9 10 6 0 13 -4 16
-10z m240 -40 c3 -5 1 -10 -4 -10 -6 0 -11 5 -11 10 0 6 2 10 4 10 3 0 8 -4
11 -10z m25 -110 c8 -5 12 -12 9 -15 -8 -8 -39 5 -39 16 0 11 11 11 30 -1z
m-130 -10 c0 -5 -2 -10 -4 -10 -3 0 -8 5 -11 10 -3 6 -1 10 4 10 6 0 11 -4 11
-10z m-199 -178 l2 -152 36 -2 c34 -1 60 -3 89 -7 6 0 12 -5 12 -10 0 -5 -31
-7 -68 -4 l-69 4 5 -32 c3 -23 1 -30 -9 -27 -7 2 -13 16 -12 31 1 15 1 102 2
194 1 91 3 164 6 161 3 -2 6 -73 6 -156z m99 148 c0 -5 -4 -10 -10 -10 -5 0
-10 5 -10 10 0 6 5 10 10 10 6 0 10 -4 10 -10z m234 1 c4 -5 -3 -7 -14 -4 -23
6 -26 13 -6 13 8 0 17 -4 20 -9z m-233 -61 c16 0 29 -4 29 -9 0 -5 -21 -7 -47
-6 -58 3 -56 3 -48 16 4 6 14 8 22 5 8 -3 28 -6 44 -6z m62 -45 c5 -12 -5 -13
-61 -8 -93 8 -102 23 -15 23 53 0 72 -4 76 -15z m164 -241 c-3 -3 -12 -4 -19
-1 -8 3 -5 6 6 6 11 1 17 -2 13 -5z m1023 -38 c0 -9 -30 -14 -35 -6 -4 6 3 10
14 10 12 0 21 -2 21 -4z m-1240 -36 c0 -5 -4 -10 -10 -10 -5 0 -10 5 -10 10 0
6 5 10 10 10 6 0 10 -4 10 -10z m70 -30 c0 -5 -10 -10 -22 -10 -19 0 -20 2 -8
10 19 13 30 13 30 0z m1300 -20 c0 -5 -4 -10 -10 -10 -5 0 -10 5 -10 10 0 6 5
10 10 10 6 0 10 -4 10 -10z m-1170 -10 c0 -5 -4 -10 -10 -10 -5 0 -10 5 -10
10 0 6 5 10 10 10 6 0 10 -4 10 -10z m770 0 c0 -5 -4 -10 -10 -10 -5 0 -10 5
-10 10 0 6 5 10 10 10 6 0 10 -4 10 -10z m40 0 c0 -5 -2 -10 -4 -10 -3 0 -8 5
-11 10 -3 6 -1 10 4 10 6 0 11 -4 11 -10z m60 2 c0 -4 -9 -8 -20 -9 -11 -1
-20 2 -20 8 0 5 9 9 20 9 11 0 20 -4 20 -8z m90 -2 c0 -5 -2 -10 -4 -10 -3 0
-8 5 -11 10 -3 6 -1 10 4 10 6 0 11 -4 11 -10z m-1075 -10 c-3 -5 -13 -10 -21
-10 -8 0 -14 5 -14 10 0 6 9 10 21 10 11 0 17 -4 14 -10z m10 -30 c3 -5 1 -10
-4 -10 -6 0 -11 5 -11 10 0 6 2 10 4 10 3 0 8 -4 11 -10z m1040 0 c-3 -5 -10
-10 -16 -10 -5 0 -9 5 -9 10 0 6 7 10 16 10 8 0 12 -4 9 -10z m-945 -30 c0 -5
-5 -10 -11 -10 -5 0 -7 5 -4 10 3 6 8 10 11 10 2 0 4 -4 4 -10z m1140 0 c0 -5
-2 -10 -4 -10 -3 0 -8 5 -11 10 -3 6 -1 10 4 10 6 0 11 -4 11 -10z m-310 -10
c0 -5 -9 -10 -20 -10 -11 0 -20 5 -20 10 0 6 9 10 20 10 11 0 20 -4 20 -10z
m170 0 c0 -5 -4 -10 -10 -10 -5 0 -10 5 -10 10 0 6 5 10 10 10 6 0 10 -4 10
-10z m-990 -60 c0 -5 -5 -10 -11 -10 -5 0 -7 5 -4 10 3 6 8 10 11 10 2 0 4 -4
4 -10z m-325 -9 c3 -5 1 -12 -5 -16 -5 -3 -10 1 -10 9 0 18 6 21 15 7z m85 -1
c0 -5 -4 -10 -10 -10 -5 0 -10 5 -10 10 0 6 5 10 10 10 6 0 10 -4 10 -10z
m1230 0 c0 -5 -4 -10 -10 -10 -5 0 -10 5 -10 10 0 6 5 10 10 10 6 0 10 -4 10
-10z m-1230 -40 c0 -5 -7 -10 -15 -10 -8 0 -15 5 -15 10 0 6 7 10 15 10 8 0
15 -4 15 -10z m207 4 c-3 -3 -12 -4 -19 -1 -8 3 -5 6 6 6 11 1 17 -2 13 -5z
m873 -38 c0 -10 -9 -14 -27 -13 -37 3 -40 22 -3 25 21 2 30 -2 30 -12z m93 -1
c-4 -15 -36 -12 -41 3 -3 9 3 13 19 10 13 -1 23 -7 22 -13z m-1253 1 c0 -3 -4
-8 -10 -11 -5 -3 -10 -1 -10 4 0 6 5 11 10 11 6 0 10 -2 10 -4z m170 -6 c0 -5
-2 -10 -4 -10 -3 0 -8 5 -11 10 -3 6 -1 10 4 10 6 0 11 -4 11 -10z m60 -19 c0
-9 -41 -23 -48 -16 -2 2 -1 8 3 14 8 13 45 15 45 2z m-140 -11 c0 -5 -5 -10
-11 -10 -5 0 -7 5 -4 10 3 6 8 10 11 10 2 0 4 -4 4 -10z m450 6 c0 -3 -4 -8
-10 -11 -5 -3 -10 -1 -10 4 0 6 5 11 10 11 6 0 10 -2 10 -4z m63 -3 c-7 -2
-19 -2 -25 0 -7 3 -2 5 12 5 14 0 19 -2 13 -5z m583 -34 c10 -17 -13 -36 -27
-22 -12 12 -4 33 11 33 5 0 12 -5 16 -11z m104 -9 c0 -19 -11 -26 -23 -14 -8
8 3 34 14 34 5 0 9 -9 9 -20z m150 16 c0 -3 -4 -8 -10 -11 -5 -3 -10 -1 -10 4
0 6 5 11 10 11 6 0 10 -2 10 -4z m-430 -18 c0 -9 3 -9 8 -3 9 14 52 17 52 4 0
-5 -6 -9 -14 -9 -7 0 -28 -3 -45 -6 -24 -5 -31 -3 -31 10 0 9 7 16 15 16 8 0
15 -6 15 -12z m240 2 c0 -5 -9 -10 -20 -10 -11 0 -20 5 -20 10 0 6 9 10 20 10
11 0 20 -4 20 -10z m-117 -7 c-7 -2 -19 -2 -25 0 -7 3 -2 5 12 5 14 0 19 -2
13 -5z m-1008 -23 c3 -5 1 -10 -4 -10 -6 0 -11 5 -11 10 0 6 2 10 4 10 3 0 8
-4 11 -10z m40 0 c3 -5 -1 -10 -9 -10 -9 0 -16 5 -16 10 0 6 4 10 9 10 6 0 13
-4 16 -10z m30 0 c3 -5 1 -10 -4 -10 -6 0 -11 5 -11 10 0 6 2 10 4 10 3 0 8
-4 11 -10z m343 -7 c2 -8 -6 -13 -22 -13 -17 0 -26 5 -26 16 0 19 41 16 48 -3z
m106 9 c2 -4 -12 -9 -32 -10 -29 -1 -33 1 -17 8 26 11 43 12 49 2z m-474 -42
c0 -5 -4 -10 -10 -10 -5 0 -10 5 -10 10 0 6 5 10 10 10 6 0 10 -4 10 -10z m46
3 c-10 -11 -36 -12 -36 -2 0 5 10 9 22 9 12 0 18 -3 14 -7z m849 -43 c3 -5 1
-10 -4 -10 -6 0 -11 5 -11 10 0 6 2 10 4 10 3 0 8 -4 11 -10z m-920 -30 c3 -6
-1 -7 -9 -4 -18 7 -21 14 -7 14 6 0 13 -4 16 -10z m0 -30 c3 -5 0 -10 -7 -10
-7 0 -50 -2 -95 -3 -46 -1 -83 -1 -83 1 0 18 174 30 185 12z m65 0 c0 -5 -7
-10 -16 -10 -8 0 -12 5 -9 10 3 6 10 10 16 10 5 0 9 -4 9 -10z m950 -10 c0 -5
-4 -10 -10 -10 -5 0 -10 5 -10 10 0 6 5 10 10 10 6 0 10 -4 10 -10z m130 0 c0
-5 -4 -10 -10 -10 -5 0 -10 5 -10 10 0 6 5 10 10 10 6 0 10 -4 10 -10z m-105
-30 c3 -5 1 -10 -4 -10 -6 0 -11 5 -11 10 0 6 2 10 4 10 3 0 8 -4 11 -10z
m-1055 -40 c0 -5 -4 -10 -9 -10 -6 0 -13 5 -16 10 -3 6 1 10 9 10 9 0 16 -4
16 -10z m60 0 c0 -5 -4 -10 -10 -10 -5 0 -10 5 -10 10 0 6 5 10 10 10 6 0 10
-4 10 -10z m1230 0 c0 -5 -2 -10 -4 -10 -3 0 -8 5 -11 10 -3 6 -1 10 4 10 6 0
11 -4 11 -10z m-1335 -30 c3 -5 1 -10 -4 -10 -6 0 -11 5 -11 10 0 6 2 10 4 10
3 0 8 -4 11 -10z m1165 -11 c0 -5 -10 -9 -21 -9 -18 0 -19 2 -9 15 12 15 30
12 30 -6z m110 6 c0 -8 -9 -15 -20 -15 -22 0 -27 15 -7 23 21 9 27 7 27 -8z
m148 1 c7 -4 17 -4 22 -1 6 3 10 2 10 -3 0 -5 -34 -10 -75 -10 -66 -1 -85 4
-71 19 7 7 101 3 114 -5z m-198 -6 c0 -5 -12 -10 -26 -10 -14 0 -23 4 -19 10
3 6 15 10 26 10 10 0 19 -4 19 -10z m-65 -110 c3 -5 -3 -10 -15 -10 -12 0 -18
5 -15 10 3 6 10 10 15 10 5 0 12 -4 15 -10z m185 -32 c0 -4 -9 -8 -20 -8 -11
0 -20 4 -20 9 0 6 9 9 20 8 11 -1 20 -5 20 -9z m-230 -42 c0 -2 -11 -6 -25 -8
-14 -3 -25 -1 -25 3 0 5 11 9 25 9 14 0 25 -2 25 -4z m-140 -36 c0 -5 -5 -10
-11 -10 -5 0 -7 5 -4 10 3 6 8 10 11 10 2 0 4 -4 4 -10z m255 0 c-3 -5 -11
-10 -16 -10 -6 0 -7 5 -4 10 3 6 11 10 16 10 6 0 7 -4 4 -10z m-165 -10 c0 -5
-4 -10 -10 -10 -5 0 -10 5 -10 10 0 6 5 10 10 10 6 0 10 -4 10 -10z m-925 -10
c4 -6 -5 -10 -19 -10 -14 0 -26 5 -26 10 0 6 9 10 19 10 11 0 23 -4 26 -10z
m1145 -4 c0 -3 -4 -8 -10 -11 -5 -3 -10 -1 -10 4 0 6 5 11 10 11 6 0 10 -2 10
-4z m-300 -16 c0 -5 -4 -10 -10 -10 -5 0 -10 5 -10 10 0 6 5 10 10 10 6 0 10
-4 10 -10z m370 -31 c0 -5 -7 -9 -15 -9 -15 0 -20 12 -9 23 8 8 24 -1 24 -14z
m-370 -2 c0 -7 -9 -13 -20 -14 -22 -2 -27 12 -7 20 21 9 27 8 27 -6z m70 -8
c0 -11 -27 -12 -34 0 -3 4 -3 11 0 14 8 8 34 -3 34 -14z m34 15 c18 -7 12 -24
-10 -24 -8 0 -14 7 -14 15 0 17 2 18 24 9z m80 -3 c3 -5 -1 -12 -10 -15 -20
-8 -29 -1 -19 13 8 13 22 14 29 2z m66 -1 c0 -5 -11 -10 -25 -10 -14 0 -25 5
-25 10 0 6 11 10 25 10 14 0 25 -4 25 -10z m240 -5 c0 -5 -9 -9 -20 -8 -11 0
-36 1 -56 2 -20 1 -33 5 -29 11 8 12 105 8 105 -5z m-585 -5 c14 -6 15 -9 5
-10 -8 -1 -25 -3 -37 -6 -24 -4 -32 11 -10 19 16 7 19 7 42 -3z m45 0 c0 -5
-5 -10 -11 -10 -5 0 -7 5 -4 10 3 6 8 10 11 10 2 0 4 -4 4 -10z m-800 -20 c0
-5 -4 -10 -10 -10 -5 0 -10 5 -10 10 0 6 5 10 10 10 6 0 10 -4 10 -10z m800
-12 c0 -10 5 -8 -55 -14 -33 -4 -47 -2 -40 4 16 16 95 24 95 10z m160 2 c0 -5
-4 -10 -10 -10 -5 0 -10 5 -10 10 0 6 5 10 10 10 6 0 10 -4 10 -10z m80 0 c0
-5 -11 -10 -25 -10 -14 0 -25 5 -25 10 0 6 11 10 25 10 14 0 25 -4 25 -10z
m-920 -10 c0 -5 -4 -10 -10 -10 -5 0 -10 5 -10 10 0 6 5 10 10 10 6 0 10 -4
10 -10z m717 4 c-3 -3 -12 -4 -19 -1 -8 3 -5 6 6 6 11 1 17 -2 13 -5z m63 -4
c0 -5 -4 -10 -10 -10 -5 0 -10 5 -10 10 0 6 5 10 10 10 6 0 10 -4 10 -10z
m-875 -10 c3 -5 -3 -10 -15 -10 -12 0 -18 5 -15 10 3 6 10 10 15 10 5 0 12 -4
15 -10z m225 0 c0 -5 -2 -10 -4 -10 -3 0 -8 5 -11 10 -3 6 -1 10 4 10 6 0 11
-4 11 -10z m-230 -40 c0 -5 -2 -10 -4 -10 -3 0 -8 5 -11 10 -3 6 -1 10 4 10 6
0 11 -4 11 -10z m940 -10 c0 -5 -8 -10 -17 -10 -15 0 -16 2 -3 10 19 12 20 12
20 0z m260 -30 c0 -5 -4 -10 -10 -10 -5 0 -10 5 -10 10 0 6 5 10 10 10 6 0 10
-4 10 -10z m1020 -34 c0 -3 -4 -8 -10 -11 -5 -3 -10 -1 -10 4 0 6 5 11 10 11
6 0 10 -2 10 -4z m70 -6 c0 -5 -2 -10 -4 -10 -3 0 -8 5 -11 10 -3 6 -1 10 4
10 6 0 11 -4 11 -10z m-1465 -10 c3 -5 -3 -10 -14 -10 -12 0 -21 5 -21 10 0 6
6 10 14 10 8 0 18 -4 21 -10z m255 0 c0 -5 -4 -10 -10 -10 -5 0 -10 5 -10 10
0 6 5 10 10 10 6 0 10 -4 10 -10z m395 0 c3 -5 1 -10 -4 -10 -6 0 -11 5 -11
10 0 6 2 10 4 10 3 0 8 -4 11 -10z m-775 -10 c0 -5 -4 -10 -10 -10 -5 0 -10 5
-10 10 0 6 5 10 10 10 6 0 10 -4 10 -10z m765 -50 c3 -5 1 -10 -4 -10 -6 0
-11 5 -11 10 0 6 2 10 4 10 3 0 8 -4 11 -10z m665 -16 c0 -2 -7 -4 -15 -4 -8
0 -15 4 -15 10 0 5 7 7 15 4 8 -4 15 -8 15 -10z m150 6 c0 -5 -22 -10 -50 -10
-27 0 -50 5 -50 10 0 6 23 10 50 10 28 0 50 -4 50 -10z m85 0 c4 -6 -8 -10
-29 -10 -20 0 -36 5 -36 10 0 6 13 10 29 10 17 0 33 -4 36 -10z m-890 -28 c-3
-3 -11 0 -18 7 -9 10 -8 11 6 5 10 -3 15 -9 12 -12z m-355 -2 c0 -5 -5 -10
-11 -10 -5 0 -7 5 -4 10 3 6 8 10 11 10 2 0 4 -4 4 -10z m1120 0 c0 -5 -7 -10
-15 -10 -8 0 -15 5 -15 10 0 6 7 10 15 10 8 0 15 -4 15 -10z m115 -20 c3 -5
-1 -10 -10 -10 -9 0 -13 5 -10 10 3 6 8 10 10 10 2 0 7 -4 10 -10z m-1448 -26
c-3 -3 -12 -4 -19 -1 -8 3 -5 6 6 6 11 1 17 -2 13 -5z m-396 -81 c0 -32 2 -84
4 -115 1 -32 -1 -58 -6 -58 -10 0 -10 -3 -12 133 -1 53 1 97 6 97 4 0 7 -26 8
-57z m299 47 c0 -5 -2 -10 -4 -10 -3 0 -8 5 -11 10 -3 6 -1 10 4 10 6 0 11 -4
11 -10z m700 -10 c0 -5 -4 -10 -10 -10 -5 0 -10 5 -10 10 0 6 5 10 10 10 6 0
10 -4 10 -10z m-270 -20 c0 -5 -5 -10 -11 -10 -5 0 -7 5 -4 10 3 6 8 10 11 10
2 0 4 -4 4 -10z m404 -6 c9 -22 8 -24 -9 -24 -8 0 -15 9 -15 20 0 24 15 27 24
4z m-634 -4 c0 -5 -7 -7 -15 -4 -8 4 -15 8 -15 10 0 2 7 4 15 4 8 0 15 -4 15
-10z m200 6 c0 -11 -19 -15 -25 -6 -3 5 1 10 9 10 9 0 16 -2 16 -4z m960 -20
c0 -9 -40 -13 -46 -5 -3 5 6 9 20 9 14 0 26 -2 26 -4z m30 -6 c0 -5 -2 -10 -4
-10 -3 0 -8 5 -11 10 -3 6 -1 10 4 10 6 0 11 -4 11 -10z m-1120 -14 c0 -8 -8
-13 -17 -11 -10 2 -21 4 -25 4 -21 2 -5 21 17 21 15 0 25 -6 25 -14z m155 4
c3 -5 -1 -10 -10 -10 -9 0 -13 5 -10 10 3 6 8 10 10 10 2 0 7 -4 10 -10z
m-118 -6 c-3 -3 -12 -4 -19 -1 -8 3 -5 6 6 6 11 1 17 -2 13 -5z m488 -25 c-3
-15 0 -19 10 -16 20 8 43 -22 25 -33 -19 -12 -37 -2 -44 23 -9 33 -7 59 3 52
6 -3 8 -15 6 -26z m145 21 c0 -5 -4 -10 -10 -10 -5 0 -10 5 -10 10 0 6 5 10
10 10 6 0 10 -4 10 -10z m500 0 c0 -5 -4 -10 -10 -10 -5 0 -10 5 -10 10 0 6 5
10 10 10 6 0 10 -4 10 -10z m-1812 -18 c2 -7 -2 -10 -12 -6 -9 3 -16 11 -16
16 0 13 23 5 28 -10z m-78 -1 c0 -26 -15 -41 -39 -41 -22 1 -23 2 -9 11 10 5
15 16 12 24 -4 10 0 15 15 15 12 0 21 -4 21 -9z m235 -21 c-23 -9 -41 3 -31
19 5 8 13 8 29 -1 21 -11 21 -11 2 -18z m1655 -20 c0 -5 -11 -10 -25 -10 -14
0 -25 5 -25 10 0 6 11 10 25 10 14 0 25 -4 25 -10z m120 -20 c0 -5 -5 -10 -11
-10 -5 0 -7 5 -4 10 3 6 8 10 11 10 2 0 4 -4 4 -10z m-756 -20 c-10 -4 -21 -6
-24 -3 -8 7 24 22 34 16 5 -4 1 -10 -10 -13z m656 10 c0 -5 -2 -10 -4 -10 -3
0 -8 5 -11 10 -3 6 -1 10 4 10 6 0 11 -4 11 -10z m-1190 -10 c0 -5 -5 -10 -11
-10 -5 0 -7 5 -4 10 3 6 8 10 11 10 2 0 4 -4 4 -10z m470 6 c0 -3 -4 -8 -10
-11 -5 -3 -10 -1 -10 4 0 6 5 11 10 11 6 0 10 -2 10 -4z m-942 -23 c2 -8 -6
-13 -22 -13 -25 0 -33 10 -19 24 10 10 36 3 41 -11z m905 -13 c-7 -27 -21 -25
-18 3 3 29 3 29 14 23 5 -3 7 -15 4 -26z m81 -83 c1 -32 -2 -63 -6 -70 -6 -9
-8 -8 -9 3 -7 135 -7 173 3 150 5 -14 11 -51 12 -83z m-404 73 c-19 -12 -30
-12 -30 -1 0 10 31 20 40 14 2 -2 -2 -8 -10 -13z m55 10 c3 -5 -3 -10 -15 -10
-12 0 -18 5 -15 10 3 6 10 10 15 10 5 0 12 -4 15 -10z m301 -74 c1 -42 6 -80
9 -86 3 -5 0 -10 -7 -10 -10 0 -10 -2 -1 -8 11 -7 9 -59 -2 -70 -10 -10 -36
30 -40 60 -10 85 -9 152 1 155 7 2 10 -24 10 -81 -1 -46 2 -82 7 -79 4 3 8 46
7 96 -2 112 -2 112 6 104 4 -3 8 -40 10 -81z m289 74 c3 -5 -1 -10 -9 -10 -9
0 -16 5 -16 10 0 6 4 10 9 10 6 0 13 -4 16 -10z m160 0 c8 -13 -15 -13 -35 0
-12 8 -11 10 7 10 12 0 25 -4 28 -10z m190 0 c-3 -5 -15 -10 -25 -10 -10 0
-22 5 -25 10 -4 6 7 10 25 10 18 0 29 -4 25 -10z m-1275 -10 c0 -5 -9 -10 -20
-10 -11 0 -20 5 -20 10 0 6 9 10 20 10 11 0 20 -4 20 -10z m80 0 c0 -5 -16
-10 -35 -10 -19 0 -35 5 -35 10 0 6 16 10 35 10 19 0 35 -4 35 -10z m70 0 c0
-5 -4 -10 -10 -10 -5 0 -10 5 -10 10 0 6 5 10 10 10 6 0 10 -4 10 -10z m65 0
c3 -5 -1 -10 -9 -10 -8 0 -18 5 -21 10 -3 6 1 10 9 10 8 0 18 -4 21 -10z
m1165 -50 c0 -5 -7 -10 -15 -10 -8 0 -15 5 -15 10 0 6 7 10 15 10 8 0 15 -4
15 -10z m-2080 -30 c0 -5 -4 -10 -9 -10 -6 0 -13 5 -16 10 -3 6 1 10 9 10 9 0
16 -4 16 -10z m1545 -20 c-3 -5 -14 -10 -23 -11 -14 0 -13 -2 3 -9 16 -7 14
-9 -15 -9 -26 -1 -31 2 -20 9 12 8 11 10 -7 10 -12 0 -25 5 -28 10 -4 6 13 10
45 10 32 0 49 -4 45 -10z m560 0 c3 -5 1 -10 -4 -10 -6 0 -11 5 -11 10 0 6 2
10 4 10 3 0 8 -4 11 -10z m35 1 c0 -6 -4 -13 -10 -16 -5 -3 -10 1 -10 9 0 9 5
16 10 16 6 0 10 -4 10 -9z m-1710 -11 c0 -5 -4 -10 -10 -10 -5 0 -10 5 -10 10
0 6 5 10 10 10 6 0 10 -4 10 -10z m-195 -10 c3 -5 1 -10 -4 -10 -6 0 -11 5
-11 10 0 6 2 10 4 10 3 0 8 -4 11 -10z m-185 -15 c0 -8 -4 -15 -10 -15 -5 0
-10 7 -10 15 0 8 5 15 10 15 6 0 10 -7 10 -15z m40 0 c0 -8 -7 -15 -15 -15
-16 0 -20 12 -8 23 11 12 23 8 23 -8z m1984 6 c3 -5 -12 -11 -34 -13 -38 -3
-48 1 -33 15 10 10 61 8 67 -2z m-1644 -11 c0 -5 -4 -10 -10 -10 -5 0 -10 5
-10 10 0 6 5 10 10 10 6 0 10 -4 10 -10z m1080 -9 c0 -5 -11 -8 -25 -8 -14 0
-25 3 -25 8 0 5 11 9 25 9 14 0 25 -4 25 -9z m50 -1 c0 -5 -4 -10 -10 -10 -5
0 -10 5 -10 10 0 6 5 10 10 10 6 0 10 -4 10 -10z m-1250 -10 c0 -5 -2 -10 -4
-10 -3 0 -8 5 -11 10 -3 6 -1 10 4 10 6 0 11 -4 11 -10z m200 -10 c0 -5 -2
-10 -4 -10 -3 0 -8 5 -11 10 -3 6 -1 10 4 10 6 0 11 -4 11 -10z m1364 -6 c4
-10 1 -14 -6 -12 -15 5 -23 28 -10 28 5 0 13 -7 16 -16z m110 -5 c-3 -5 -10
-7 -15 -3 -5 3 -7 10 -3 15 3 5 10 7 15 3 5 -3 7 -10 3 -15z m-1554 1 c0 -5
-2 -10 -4 -10 -3 0 -8 5 -11 10 -3 6 -1 10 4 10 6 0 11 -4 11 -10z m990 -15
c0 -14 -4 -25 -9 -25 -5 0 -11 11 -13 25 -4 17 -1 25 8 25 8 0 14 -11 14 -25z
m88 18 c-10 -2 -28 -2 -40 0 -13 2 -5 4 17 4 22 1 32 -1 23 -4z m-1198 -23 c0
-5 -4 -10 -10 -10 -5 0 -10 5 -10 10 0 6 5 10 10 10 6 0 10 -4 10 -10z m200 0
c0 -5 -4 -10 -10 -10 -5 0 -10 5 -10 10 0 6 5 10 10 10 6 0 10 -4 10 -10z
m960 0 c0 -5 -4 -10 -10 -10 -5 0 -10 5 -10 10 0 6 5 10 10 10 6 0 10 -4 10
-10z m380 0 c0 -5 -4 -10 -10 -10 -5 0 -10 5 -10 10 0 6 5 10 10 10 6 0 10 -4
10 -10z m267 -4 c-3 -8 -1 -17 6 -19 7 -2 8 -8 4 -13 -4 -5 -12 -2 -17 6 -13
20 -12 40 1 40 6 0 9 -6 6 -14z m-612 -5 c3 -5 1 -12 -5 -16 -5 -3 -10 1 -10
9 0 18 6 21 15 7z m-1325 -11 c0 -5 -4 -10 -10 -10 -5 0 -10 5 -10 10 0 6 5
10 10 10 6 0 10 -4 10 -10z m490 1 c0 -5 -9 -7 -20 -4 -11 3 -20 7 -20 9 0 2
9 4 20 4 11 0 20 -4 20 -9z m597 -23 c-3 -7 -5 -2 -5 12 0 14 2 19 5 13 2 -7
2 -19 0 -25z m533 23 c0 -5 -7 -11 -15 -15 -15 -5 -20 5 -8 17 9 10 23 9 23
-2z m90 -1 c0 -5 -4 -10 -10 -10 -5 0 -10 5 -10 10 0 6 5 10 10 10 6 0 10 -4
10 -10z m-1380 -10 c0 -5 -2 -10 -4 -10 -3 0 -8 5 -11 10 -3 6 -1 10 4 10 6 0
11 -4 11 -10z m1226 -17 c-10 -10 -19 5 -10 18 6 11 8 11 12 0 2 -7 1 -15 -2
-18z m126 -37 c12 -9 26 -13 31 -9 5 3 13 0 17 -8 7 -10 14 -10 35 -1 14 7 24
8 21 3 -3 -5 28 -9 68 -9 67 1 74 3 73 19 -1 11 -5 19 -9 19 -4 0 -8 7 -8 16
0 9 5 13 13 10 6 -3 20 -9 30 -12 18 -7 24 -24 8 -24 -5 0 -12 -8 -16 -19 -4
-15 -19 -20 -83 -24 -42 -4 -89 -8 -104 -11 -16 -2 -28 0 -28 5 0 5 -4 9 -10
9 -5 0 -10 -11 -10 -25 0 -14 -4 -25 -10 -25 -5 0 -10 12 -10 26 0 14 -4 23
-10 19 -5 -3 -10 -1 -10 4 0 6 -7 11 -15 11 -8 0 -15 -6 -15 -14 0 -27 -94
-36 -104 -10 -3 8 -2 12 4 9 5 -3 7 0 4 8 -8 23 25 28 45 8 19 -19 20 -19 40
0 13 13 22 34 22 57 2 30 3 32 6 10 2 -15 14 -34 25 -42z m-388 32 c-3 -13 -8
-25 -10 -27 -6 -6 -11 1 -18 27 -6 18 -4 22 14 22 18 0 20 -4 14 -22z m563 8
c-3 -8 -1 -17 6 -19 7 -2 9 -7 5 -11 -7 -8 -63 18 -73 34 -4 6 8 10 30 10 28
0 36 -3 32 -14z m-312 -17 c6 -6 1 -17 -13 -31 -12 -12 -22 -17 -22 -10 0 7
-7 12 -15 12 -8 0 -15 -9 -15 -19 0 -11 -4 -23 -10 -26 -6 -3 -10 4 -10 18 0
30 -10 40 -26 26 -14 -11 -34 -4 -34 12 0 5 20 9 45 9 34 0 45 4 45 16 0 11 6
14 23 9 12 -4 26 -11 32 -16z m90 -19 c-7 -12 -45 -13 -63 -1 -16 10 1 26 33
33 21 4 40 -16 30 -32z m265 20 c0 -5 -4 -10 -10 -10 -5 0 -10 5 -10 10 0 6 5
10 10 10 6 0 10 -4 10 -10z m-540 -10 c0 -5 -5 -10 -11 -10 -5 0 -7 5 -4 10 3
6 8 10 11 10 2 0 4 -4 4 -10z m-40 -24 c0 -3 -4 -8 -10 -11 -5 -3 -10 -1 -10
4 0 6 5 11 10 11 6 0 10 -2 10 -4z m23 -43 c65 -10 42 -30 -40 -35 -24 -2 -43
-7 -43 -13 0 -5 -5 -3 -10 5 -9 13 -11 13 -19 0 -6 -8 -14 -11 -18 -6 -4 5 -2
11 5 13 6 3 12 11 12 19 0 8 9 14 20 14 11 0 20 5 20 11 0 7 7 8 18 4 9 -4 34
-9 55 -12z m172 -3 c0 -7 -10 -14 -22 -15 -18 -1 -20 1 -12 17 11 21 34 19 34
-2z m-495 0 c0 -5 -4 -10 -10 -10 -5 0 -10 5 -10 10 0 6 5 10 10 10 6 0 10 -4
10 -10z m898 -33 c2 -15 11 -29 23 -32 24 -8 26 -45 2 -45 -16 0 -16 2 -3 11
12 9 11 10 -6 6 -30 -6 -134 13 -134 25 0 6 -10 8 -23 5 -29 -8 -58 8 -31 17
28 8 134 4 134 -6 0 -4 5 -8 11 -8 7 0 10 12 7 30 -3 19 -1 29 6 27 6 -2 12
-15 14 -30z m-475 16 c-7 -2 -19 -2 -25 0 -7 3 -2 5 12 5 14 0 19 -2 13 -5z
m517 -23 c0 -5 -4 -10 -9 -10 -6 0 -13 5 -16 10 -3 6 1 10 9 10 9 0 16 -4 16
-10z m-526 -65 c17 -13 17 -15 3 -29 -20 -20 -33 -20 -41 0 -16 42 2 56 38 29z
m233 -32 c-3 -10 -5 -4 -5 12 0 17 2 24 5 18 2 -7 2 -21 0 -30z m20 -5 c-3 -7
-5 -2 -5 12 0 14 2 19 5 13 2 -7 2 -19 0 -25z m163 22 c12 -8 11 -10 -7 -10
-12 0 -25 5 -28 10 -8 13 15 13 35 0z m-1450 -75 c0 -8 -4 -15 -9 -15 -13 0
-22 16 -14 24 11 11 23 6 23 -9z m-169 -18 c-1 -12 -15 -9 -19 4 -3 6 1 10 8
8 6 -3 11 -8 11 -12z m929 -7 c0 -5 -2 -10 -4 -10 -3 0 -8 5 -11 10 -3 6 -1
10 4 10 6 0 11 -4 11 -10z m-1360 -70 c0 -5 -4 -10 -10 -10 -5 0 -10 5 -10 10
0 6 5 10 10 10 6 0 10 -4 10 -10z m1120 -50 c0 -5 -7 -10 -15 -10 -8 0 -15 5
-15 10 0 6 7 10 15 10 8 0 15 -4 15 -10z m60 1 c0 -6 -4 -13 -10 -16 -6 -3
-11 -54 -11 -113 -1 -90 -3 -99 -9 -57 -10 63 -12 180 -3 188 10 10 33 8 33
-2z m-810 -81 c0 -5 -7 -10 -15 -10 -8 0 -15 5 -15 10 0 6 7 10 15 10 8 0 15
-4 15 -10z m960 -57 c0 -16 -6 -23 -20 -23 -15 0 -20 7 -20 24 0 19 5 24 20
23 14 -1 20 -8 20 -24z m60 1 c0 -20 -4 -25 -16 -20 -9 3 -18 6 -20 6 -2 0 -4
9 -4 20 0 13 7 20 20 20 15 0 20 -7 20 -26z m80 1 c0 -27 -36 -31 -43 -5 -6
23 -1 29 24 27 12 -1 19 -9 19 -22z m44 19 c24 -9 20 -44 -4 -44 -15 0 -20 7
-20 25 0 27 1 28 24 19z m76 -20 c0 -17 -5 -24 -20 -24 -14 0 -20 7 -20 23 0
16 6 23 20 24 15 1 20 -4 20 -23z m40 -9 c0 -8 -4 -15 -10 -15 -5 0 -7 7 -4
15 4 8 8 15 10 15 2 0 4 -7 4 -15z m59 -12 c2 -2 -5 -3 -17 -3 -14 0 -22 6
-22 16 0 14 3 15 18 3 9 -7 19 -15 21 -16z m-1159 13 c0 -3 -4 -8 -10 -11 -5
-3 -10 -1 -10 4 0 6 5 11 10 11 6 0 10 -2 10 -4z m940 -58 c0 -11 -7 -18 -18
-18 -10 0 -18 8 -19 18 -1 11 5 18 18 18 12 0 19 -7 19 -18z m58 -1 c3 -12 -1
-15 -15 -11 -13 4 -14 3 -5 -4 7 -5 24 -7 38 -4 13 2 24 0 24 -6 0 -11 -89
-35 -235 -63 -120 -23 -115 -23 -115 -4 0 8 10 17 23 20 12 2 65 14 117 26
132 29 130 28 130 50 0 25 33 22 38 -4z m37 14 c3 -5 1 -12 -5 -16 -5 -3 -10
1 -10 9 0 18 6 21 15 7z m235 -1 c0 -5 -2 -10 -4 -10 -3 0 -8 5 -11 10 -3 6
-1 10 4 10 6 0 11 -4 11 -10z m70 -18 c0 -26 -3 -28 -31 -24 l-32 5 27 16 c14
8 26 19 26 23 0 5 2 8 5 8 3 0 5 -13 5 -28z m-537 -3 c6 -22 2 -24 -58 -34
-22 -4 -45 -11 -51 -16 -7 -6 -9 2 -6 24 3 17 7 26 9 20 6 -16 63 -17 63 -2 0
6 8 8 18 5 14 -5 14 -4 -2 9 -20 15 -19 15 1 15 12 0 23 -8 26 -21z m57 6 c0
-8 -9 -15 -20 -15 -11 0 -20 7 -20 15 0 8 9 15 20 15 11 0 20 -7 20 -15z m26
-12 c-10 -10 -19 5 -10 18 6 11 8 11 12 0 2 -7 1 -15 -2 -18z m212 9 c2 -7 -3
-12 -12 -12 -9 0 -16 7 -16 16 0 17 22 14 28 -4z m142 8 c0 -5 -4 -10 -10 -10
-5 0 -10 5 -10 10 0 6 5 10 10 10 6 0 10 -4 10 -10z m-1480 -20 c0 -5 -4 -10
-10 -10 -5 0 -10 5 -10 10 0 6 5 10 10 10 6 0 10 -4 10 -10z m1390 0 c0 -5 -4
-10 -10 -10 -5 0 -10 5 -10 10 0 6 5 10 10 10 6 0 10 -4 10 -10z m-504 -37
c-8 -9 -76 -21 -76 -14 0 10 53 28 68 23 7 -2 11 -7 8 -9z m446 -5 c-10 -10
-44 0 -37 12 3 5 14 6 26 3 12 -3 17 -9 11 -15z m343 2 c-2 -4 -17 -7 -32 -7
-24 0 -25 1 -9 13 18 13 50 9 41 -6z m65 10 c0 -5 -4 -10 -10 -10 -5 0 -10 5
-10 10 0 6 5 10 10 10 6 0 10 -4 10 -10z m-330 -10 c0 -5 -12 -10 -27 -10 -22
0 -25 2 -13 10 20 13 40 13 40 0z m-660 -22 c0 -18 -2 -20 -9 -8 -6 8 -7 18
-5 22 9 14 14 9 14 -14z m495 12 c10 -16 -22 -41 -57 -44 -18 -2 -44 -8 -58
-14 -14 -5 -49 -18 -77 -28 -52 -18 -53 -18 -67 1 -9 11 -16 14 -16 8 0 -18
-27 -16 -33 1 -6 15 48 40 64 30 5 -3 15 -2 22 3 11 7 174 48 204 52 6 0 15
-4 18 -9z m-550 -30 c-11 -5 -30 -9 -42 -9 -13 -1 -23 -7 -23 -13 0 -9 -3 -8
-10 2 -12 20 6 30 55 29 31 0 36 -2 20 -9z m985 0 c0 -5 -10 -10 -21 -10 -18
0 -19 -3 -9 -15 13 -15 13 -15 -34 -29 -18 -6 -26 13 -15 39 4 11 8 17 8 13 1
-4 11 -3 24 2 30 12 47 12 47 0z m-103 -42 c2 -17 0 -19 -7 -9 -7 12 -11 13
-24 1 -9 -7 -19 -10 -23 -6 -7 7 26 35 42 36 6 0 12 -10 12 -22z m-87 -2 c0
-3 -4 -8 -10 -11 -5 -3 -10 -1 -10 4 0 6 5 11 10 11 6 0 10 -2 10 -4z m-330
-10 c0 -3 -4 -8 -10 -11 -5 -3 -10 -1 -10 4 0 6 5 11 10 11 6 0 10 -2 10 -4z
m-193 -22 c-3 -3 -12 -4 -19 -1 -8 3 -5 6 6 6 11 1 17 -2 13 -5z m431 -13 c3
-9 -1 -11 -16 -7 -11 4 -23 2 -27 -4 -6 -10 -35 10 -35 25 0 12 74 0 78 -14z
m189 13 c-3 -3 -12 -4 -19 -1 -8 3 -5 6 6 6 11 1 17 -2 13 -5z m287 -19 c4
-10 -1 -15 -14 -15 -20 0 -26 11 -13 23 10 11 20 8 27 -8z m-744 -38 c0 -4 -8
-10 -17 -13 -10 -3 -25 -8 -33 -12 -8 -3 -21 -4 -27 -3 -7 1 -13 -3 -13 -9 0
-13 -30 -13 -50 0 -12 8 -9 12 18 22 17 7 32 15 32 18 0 3 20 5 45 5 25 0 45
-4 45 -8z m-1050 -27 c0 -5 -2 -10 -4 -10 -3 0 -8 5 -11 10 -3 6 -1 10 4 10 6
0 11 -4 11 -10z m885 -10 c-3 -5 1 -10 11 -10 14 0 14 -2 3 -16 -12 -14 -14
-14 -20 3 -11 26 -10 33 2 33 5 0 7 -4 4 -10z m-65 -10 c0 -5 -7 -10 -16 -10
-8 0 -12 5 -9 10 3 6 10 10 16 10 5 0 9 -4 9 -10z m210 0 c0 -5 -7 -10 -15
-10 -8 0 -15 5 -15 10 0 6 7 10 15 10 8 0 15 -4 15 -10z m-75 -20 c3 -5 -1
-10 -9 -10 -9 0 -16 5 -16 10 0 6 4 10 9 10 6 0 13 -4 16 -10z m-368 -156 c-3
-3 -12 -4 -19 -1 -8 3 -5 6 6 6 11 1 17 -2 13 -5z"/>
<path d="M2861 3594 c0 -11 3 -14 6 -6 3 7 2 16 -1 19 -3 4 -6 -2 -5 -13z"/>
<path d="M5100 3025 c-10 -12 -10 -15 4 -15 9 0 16 7 16 15 0 8 -2 15 -4 15
-2 0 -9 -7 -16 -15z"/>
<path d="M1915 2806 c-11 -9 -14 -16 -7 -16 6 0 12 -7 12 -15 0 -15 -18 -18
-115 -18 -47 0 -85 11 -85 24 0 5 9 9 19 9 11 0 23 5 26 10 6 10 -21 7 -62 -6
-10 -2 -13 -36 -13 -123 0 -69 -4 -122 -10 -126 -6 -4 -10 -60 -10 -136 0
-108 -2 -129 -15 -129 -13 0 -15 -23 -16 -137 -1 -76 -1 -148 -1 -160 1 -16
-5 -23 -18 -23 -23 0 -22 -27 -20 473 l1 278 -33 13 c-35 15 -177 21 -405 18
l-132 -2 2 -475 2 -476 -23 -6 c-13 -3 -39 -3 -58 0 -18 3 -34 2 -34 -4 0 -5
9 -9 21 -9 11 0 17 -4 14 -10 -3 -5 -24 -10 -46 -10 -37 0 -39 -2 -39 -30 0
-24 -4 -30 -22 -30 -19 0 -20 -2 -8 -11 11 -8 2 -9 -35 -5 -27 4 -54 11 -59
16 -6 6 -35 10 -65 10 l-56 0 -2 262 -2 262 -53 25 c-44 20 -72 25 -174 29
-110 4 -125 2 -177 -20 l-57 -24 -3 -220 -2 -219 -65 -1 c-36 -1 -71 -2 -77
-3 -17 -1 -18 -101 -1 -101 9 0 9 -3 0 -12 -7 -7 -12 -28 -11 -48 1 -32 2 -33
9 -10 8 26 11 20 19 -47 1 -10 38 -13 150 -13 145 0 150 -1 179 -25 16 -14 33
-36 36 -50 3 -13 11 -36 16 -50 l10 -27 34 30 c63 55 128 95 194 118 36 12 69
28 73 36 7 9 11 10 17 2 4 -7 47 -13 102 -16 68 -3 108 -10 142 -25 62 -28
143 -105 180 -170 32 -57 39 -64 31 -33 -4 13 0 20 9 20 8 0 30 16 49 36 18
20 52 49 73 65 21 16 34 29 28 29 -7 0 -12 11 -12 25 0 30 26 34 35 5 4 -11
11 -18 16 -14 5 3 7 10 4 15 -10 15 5 49 22 49 8 0 17 -9 20 -20 6 -24 1 -24
54 -4 66 24 276 30 362 10 146 -34 252 -115 320 -243 60 -114 68 -166 74 -450
4 -178 9 -253 17 -253 6 0 46 5 88 12 l78 11 0 905 c0 656 -3 909 -11 918 -9
11 -8 18 1 29 10 12 9 15 -7 15 -16 0 -19 -5 -16 -25 5 -22 2 -24 -26 -22 -37
2 -44 33 -8 40 12 2 -36 5 -106 6 -79 0 -126 -3 -122 -9 3 -5 12 -7 20 -3 8 3
15 0 15 -6 0 -7 8 -7 26 0 15 5 45 9 66 7 37 -2 39 -3 36 -32 -2 -23 -8 -31
-23 -32 -29 -1 -37 6 -26 20 8 9 -7 11 -65 10 -72 -2 -76 -1 -71 18 7 24 -2
50 -14 42 -5 -3 -9 -1 -9 5 0 5 5 13 12 17 8 5 6 10 -8 15 -15 5 -12 8 16 13
64 10 190 14 190 5 0 -5 -39 -9 -86 -9 -74 0 -85 -2 -82 -17 3 -17 48 -27 48
-10 0 5 7 4 15 -3 12 -10 15 -10 15 1 0 9 3 10 8 4 4 -5 21 -10 37 -10 17 0
33 5 37 10 5 6 8 5 8 -4 0 -10 3 -11 14 -2 11 9 15 9 19 -1 4 -10 6 -10 6 1 1
11 4 11 16 1 12 -10 16 -9 21 5 7 17 8 17 20 0 15 -20 34 -12 34 14 0 14 -6
17 -27 15 -16 -2 -22 -1 -15 2 8 4 12 34 12 98 l0 93 -37 17 c-31 13 -66 16
-183 15 -80 -1 -162 0 -182 2 -21 3 -38 1 -38 -3 0 -15 -19 -8 -22 8 -3 13 -5
13 -23 0z m195 -76 c0 -5 -4 -10 -10 -10 -5 0 -10 5 -10 10 0 6 5 10 10 10 6
0 10 -4 10 -10z m80 0 c0 -5 -11 -10 -25 -10 -14 0 -25 5 -25 10 0 6 11 10 25
10 14 0 25 -4 25 -10z m25 0 c3 -5 1 -10 -4 -10 -6 0 -11 5 -11 10 0 6 2 10 4
10 3 0 8 -4 11 -10z m105 0 c0 -5 -7 -10 -15 -10 -8 0 -15 5 -15 10 0 6 7 10
15 10 8 0 15 -4 15 -10z m-754 -95 c4 -28 7 -65 7 -82 -1 -18 2 -33 5 -33 4 0
8 -56 9 -125 1 -109 0 -125 -15 -125 -13 0 -13 -2 4 -15 17 -13 17 -14 2 -15
-21 0 -24 -16 -5 -23 7 -3 6 -6 -5 -6 -9 -1 -19 7 -21 17 -7 26 -9 342 -2 392
2 14 4 36 4 49 1 37 9 21 17 -34z m-436 35 c0 -5 -4 -10 -10 -10 -5 0 -10 5
-10 10 0 6 5 10 10 10 6 0 10 -4 10 -10z m80 -10 c0 -5 -4 -10 -10 -10 -5 0
-10 5 -10 10 0 6 5 10 10 10 6 0 10 -4 10 -10z m860 -60 c0 -6 -25 -9 -57 -9
-48 1 -53 3 -28 9 45 11 85 11 85 0z m150 0 c0 -5 -16 -10 -35 -10 -19 0 -35
5 -35 10 0 6 16 10 35 10 19 0 35 -4 35 -10z m-401 -82 c1 -26 -3 -50 -9 -53
-6 -4 -10 21 -9 67 0 81 17 69 18 -14z m546 62 c-3 -5 -15 -10 -26 -10 -10 0
-19 5 -19 10 0 6 12 10 26 10 14 0 23 -4 19 -10z m-1275 -40 c0 -5 -2 -10 -4
-10 -3 0 -8 5 -11 10 -3 6 -1 10 4 10 6 0 11 -4 11 -10z m66 3 c-11 -11 -46
-14 -46 -3 0 6 12 10 27 10 14 0 23 -3 19 -7z m87 0 c-7 -2 -19 -2 -25 0 -7 3
-2 5 12 5 14 0 19 -2 13 -5z m177 -3 c0 -5 -4 -10 -10 -10 -5 0 -10 5 -10 10
0 6 5 10 10 10 6 0 10 -4 10 -10z m640 -10 c0 -13 -11 -13 -30 0 -12 8 -11 10
8 10 12 0 22 -4 22 -10z m-180 -27 c0 -9 -28 -32 -33 -27 -11 11 5 42 19 37 8
-3 14 -7 14 -10z m-90 -3 c0 -5 -5 -10 -11 -10 -5 0 -7 5 -4 10 3 6 8 10 11
10 2 0 4 -4 4 -10z m240 6 c0 -2 -7 -6 -15 -10 -8 -3 -15 -1 -15 4 0 6 7 10
15 10 8 0 15 -2 15 -4z m300 -26 c0 -11 -4 -20 -10 -20 -5 0 -10 9 -10 20 0
11 5 20 10 20 6 0 10 -9 10 -20z m-540 -10 c0 -5 -5 -10 -11 -10 -5 0 -7 5 -4
10 3 6 8 10 11 10 2 0 4 -4 4 -10z m-390 -21 c0 -5 -11 -9 -25 -9 -33 0 -33
15 0 16 14 1 25 -2 25 -7z m826 -16 c-10 -10 -19 5 -10 18 6 11 8 11 12 0 2
-7 1 -15 -2 -18z m-1146 7 c0 -5 -4 -10 -10 -10 -5 0 -10 5 -10 10 0 6 5 10
10 10 6 0 10 -4 10 -10z m50 0 c0 -5 -7 -10 -15 -10 -8 0 -15 5 -15 10 0 6 7
10 15 10 8 0 15 -4 15 -10z m325 0 c-3 -5 -12 -7 -20 -3 -21 7 -19 13 6 13 11
0 18 -4 14 -10z m-147 -28 c2 -7 -3 -12 -12 -12 -9 0 -16 7 -16 16 0 17 22 14
28 -4z m-178 -2 c0 -5 -7 -10 -15 -10 -8 0 -15 5 -15 10 0 6 7 10 15 10 8 0
15 -4 15 -10z m1140 0 c0 -5 -4 -10 -10 -10 -5 0 -10 5 -10 10 0 6 5 10 10 10
6 0 10 -4 10 -10z m-490 -10 c0 -5 -4 -10 -9 -10 -6 0 -13 5 -16 10 -3 6 1 10
9 10 9 0 16 -4 16 -10z m-490 -20 c0 -5 -5 -10 -11 -10 -5 0 -7 5 -4 10 3 6 8
10 11 10 2 0 4 -4 4 -10z m810 0 c0 -5 -4 -10 -10 -10 -5 0 -10 5 -10 10 0 6
5 10 10 10 6 0 10 -4 10 -10z m150 -6 c0 -11 -5 -14 -16 -10 -9 3 -22 6 -30 6
-8 0 -14 5 -14 10 0 6 14 10 30 10 21 0 30 -5 30 -16z m70 6 c0 -5 -4 -10 -10
-10 -5 0 -10 5 -10 10 0 6 5 10 10 10 6 0 10 -4 10 -10z m25 0 c3 -5 1 -10 -4
-10 -6 0 -11 5 -11 10 0 6 2 10 4 10 3 0 8 -4 11 -10z m30 0 c3 -5 1 -10 -4
-10 -6 0 -11 5 -11 10 0 6 2 10 4 10 3 0 8 -4 11 -10z m-435 -8 c0 -5 -16 -9
-35 -9 -19 0 -35 4 -35 9 0 4 16 8 35 8 19 0 35 -4 35 -8z m30 4 c0 -3 -4 -8
-10 -11 -5 -3 -10 -1 -10 4 0 6 5 11 10 11 6 0 10 -2 10 -4z m450 -46 c0 -20
-5 -30 -15 -30 -18 0 -20 20 -2 21 10 0 10 2 0 6 -18 7 -16 33 2 33 10 0 15
-10 15 -30z m-530 10 c0 -5 -10 -10 -22 -10 -19 0 -20 2 -8 10 19 13 30 13 30
0z m303 -14 c3 3 15 3 27 -1 14 -4 18 -11 13 -16 -12 -12 -73 -20 -73 -10 0 4
-9 7 -20 7 -11 0 -20 -3 -20 -7 0 -4 -22 -6 -50 -6 -30 1 -50 7 -50 13 0 15
36 22 95 18 28 -1 43 1 39 8 -4 6 1 6 13 -1 11 -6 23 -8 26 -5z m155 -15 c3
-8 -1 -12 -9 -9 -7 2 -15 10 -17 17 -3 8 1 12 9 9 7 -2 15 -10 17 -17z m-438
-5 c0 -8 -10 -13 -25 -13 -25 0 -31 7 -18 20 12 12 43 7 43 -7z m70 4 c0 -4
-13 -10 -30 -12 -19 -3 -30 0 -30 7 0 7 14 12 30 13 17 0 30 -3 30 -8z m30 0
c0 -5 -4 -10 -10 -10 -5 0 -10 5 -10 10 0 6 5 10 10 10 6 0 10 -4 10 -10z
m-858 -72 c-9 -9 -15 -9 -24 0 -9 9 -7 12 12 12 19 0 21 -3 12 -12z m998 2 c0
-5 -7 -10 -15 -10 -8 0 -15 5 -15 10 0 6 7 10 15 10 8 0 15 -4 15 -10z m-970
-31 c0 -5 -29 -8 -65 -8 -36 1 -65 5 -65 10 0 4 29 8 65 8 36 -1 65 -5 65 -10z
m120 7 c0 -3 -4 -8 -10 -11 -5 -3 -10 -1 -10 4 0 6 5 11 10 11 6 0 10 -2 10
-4z m70 -5 c0 -6 -9 -9 -20 -8 -11 1 -20 5 -20 9 0 4 9 8 20 8 11 0 20 -4 20
-9z m45 -1 c3 -5 1 -10 -4 -10 -6 0 -11 5 -11 10 0 6 2 10 4 10 3 0 8 -4 11
-10z m55 0 c0 -5 -9 -10 -21 -10 -11 0 -17 5 -14 10 3 6 13 10 21 10 8 0 14
-4 14 -10z m694 -4 c-3 -7 2 -16 12 -20 13 -5 14 -9 4 -21 -11 -13 -4 -15 54
-15 52 0 66 -3 66 -15 0 -11 -12 -15 -44 -15 -73 0 -166 -12 -160 -21 3 -5 1
-9 -5 -9 -6 0 -13 16 -17 35 -3 20 -12 35 -20 35 -8 0 -14 4 -14 9 0 6 21 13
48 17 26 4 41 9 34 11 -19 7 -7 18 22 21 18 1 24 -2 20 -12z m54 -4 c2 -7 -6
-12 -17 -12 -21 0 -27 11 -14 24 9 9 26 2 31 -12z m142 8 c0 -5 -4 -10 -10
-10 -5 0 -10 -5 -10 -10 0 -6 7 -10 16 -8 10 2 19 -2 21 -8 2 -6 -14 -11 -42
-11 -25 -1 -45 3 -45 8 0 5 8 9 19 9 10 0 21 9 24 20 5 20 27 28 27 10z m-796
-36 c14 -9 -47 -11 -245 -8 -302 3 -272 1 -265 13 9 13 487 8 510 -5z m707 6
c24 0 5 -16 -21 -18 -29 -2 -38 7 -23 22 4 3 13 4 21 1 7 -3 18 -5 23 -5z
m-1831 -15 c0 -8 -4 -15 -10 -15 -5 0 -10 7 -10 15 0 8 5 15 10 15 6 0 10 -7
10 -15z m50 6 c0 -10 -30 -24 -37 -17 -3 3 -2 9 2 15 8 13 35 15 35 2z m1520
1 c0 -14 -11 -21 -26 -15 -21 8 -17 23 6 23 11 0 20 -4 20 -8z m-1790 -12 c0
-5 -5 -10 -11 -10 -5 0 -7 5 -4 10 3 6 8 10 11 10 2 0 4 -4 4 -10z m30 0 c0
-5 -4 -10 -10 -10 -5 0 -10 5 -10 10 0 6 5 10 10 10 6 0 10 -4 10 -10z m70 0
c0 -5 -14 -10 -31 -10 -17 0 -28 4 -24 10 3 6 17 10 31 10 13 0 24 -4 24 -10z
m70 0 c0 -5 -4 -10 -10 -10 -5 0 -10 5 -10 10 0 6 5 10 10 10 6 0 10 -4 10
-10z m1638 -29 c2 -6 -7 -11 -20 -12 -12 0 -17 -3 -10 -6 19 -8 14 -23 -9 -23
-11 0 -17 5 -14 10 5 8 -14 14 -36 12 -4 -1 -21 3 -38 8 -19 5 -31 5 -31 -1 0
-5 -7 -9 -15 -9 -8 0 -15 6 -15 14 0 10 13 16 38 18 68 6 146 0 150 -11z
m-863 -21 c4 -6 -8 -10 -30 -10 -22 0 -34 4 -30 10 3 6 17 10 30 10 13 0 27
-4 30 -10z m35 0 c0 -5 -4 -10 -10 -10 -5 0 -10 5 -10 10 0 6 5 10 10 10 6 0
10 -4 10 -10z m40 0 c0 -5 -4 -10 -10 -10 -5 0 -10 5 -10 10 0 6 5 10 10 10 6
0 10 -4 10 -10z m60 0 c0 -5 -6 -10 -14 -10 -8 0 -18 5 -21 10 -3 6 3 10 14
10 12 0 21 -4 21 -10z m70 0 c0 -5 -4 -10 -10 -10 -5 0 -10 5 -10 10 0 6 5 10
10 10 6 0 10 -4 10 -10z m100 0 c0 -5 -9 -10 -20 -10 -11 0 -20 5 -20 10 0 6
9 10 20 10 11 0 20 -4 20 -10z m-1115 -10 c3 -5 1 -10 -4 -10 -6 0 -11 5 -11
10 0 6 2 10 4 10 3 0 8 -4 11 -10z m1897 -2 c-9 -9 -15 -9 -24 0 -9 9 -7 12
12 12 19 0 21 -3 12 -12z m68 2 c0 -5 -7 -10 -16 -10 -8 0 -12 5 -9 10 3 6 10
10 16 10 5 0 9 -4 9 -10z m25 0 c3 -5 1 -10 -4 -10 -6 0 -11 5 -11 10 0 6 2
10 4 10 3 0 8 -4 11 -10z m35 0 c0 -5 -4 -10 -10 -10 -5 0 -10 5 -10 10 0 6 5
10 10 10 6 0 10 -4 10 -10z m-510 -10 c0 -5 -7 -10 -15 -10 -8 0 -15 5 -15 10
0 6 7 10 15 10 8 0 15 -4 15 -10z m-1260 -10 c0 -5 -2 -10 -4 -10 -3 0 -8 5
-11 10 -3 6 -1 10 4 10 6 0 11 -4 11 -10z m647 -4 c4 -3 -17 -6 -45 -6 -29 0
-52 4 -52 9 0 10 87 7 97 -3z m63 4 c0 -5 -12 -10 -26 -10 -14 0 -23 4 -19 10
3 6 15 10 26 10 10 0 19 -4 19 -10z m110 -1 c0 -5 -23 -9 -51 -9 -27 0 -48 3
-46 8 7 11 97 12 97 1z m40 -9 c0 -5 -2 -10 -4 -10 -3 0 -8 5 -11 10 -3 6 -1
10 4 10 6 0 11 -4 11 -10z m450 1 c0 -12 -20 -25 -27 -18 -7 7 6 27 18 27 5 0
9 -4 9 -9z m177 -17 c-9 -9 -28 6 -21 18 4 6 10 6 17 -1 6 -6 8 -13 4 -17z
m197 17 c3 -4 3 -11 0 -14 -8 -8 -34 3 -34 14 0 11 27 12 34 0z m81 -1 c-9
-14 -45 -19 -45 -5 0 7 11 13 25 13 13 0 23 -4 20 -8z m-420 -10 c3 -5 1 -10
-4 -10 -6 0 -11 5 -11 10 0 6 2 10 4 10 3 0 8 -4 11 -10z m35 0 c0 -5 -4 -10
-10 -10 -5 0 -10 5 -10 10 0 6 5 10 10 10 6 0 10 -4 10 -10z m160 6 c0 -9 -30
-14 -35 -6 -4 6 3 10 14 10 12 0 21 -2 21 -4z m-737 -15 c15 0 27 -6 27 -11 0
-7 -45 -10 -130 -8 -119 3 -151 8 -117 21 10 4 113 3 220 -2z m627 -21 c0 -5
-9 -10 -20 -10 -11 0 -20 5 -20 10 0 6 9 10 20 10 11 0 20 -4 20 -10z m30 6
c0 -3 -4 -8 -10 -11 -5 -3 -10 -1 -10 4 0 6 5 11 10 11 6 0 10 -2 10 -4z m44
-4 c2 -4 -4 -9 -15 -9 -10 -1 -19 2 -19 8 0 11 27 12 34 1z m66 -2 c0 -5 -11
-10 -25 -10 -14 0 -25 5 -25 10 0 6 11 10 25 10 14 0 25 -4 25 -10z m110 0 c0
-5 -4 -10 -10 -10 -5 0 -10 5 -10 10 0 6 5 10 10 10 6 0 10 -4 10 -10z m128
-1 c-2 -6 -8 -10 -13 -10 -5 0 -11 4 -13 10 -2 6 4 11 13 11 9 0 15 -5 13 -11z
m-683 -9 c3 -5 1 -10 -4 -10 -6 0 -11 5 -11 10 0 6 2 10 4 10 3 0 8 -4 11 -10z
m145 0 c0 -5 -4 -10 -10 -10 -5 0 -10 5 -10 10 0 6 5 10 10 10 6 0 10 -4 10
-10z m240 -31 c0 -5 -18 -9 -40 -9 -45 0 -55 17 -12 22 32 4 52 -1 52 -13z
m147 5 c4 -12 -79 -18 -111 -8 -21 7 -21 7 -1 15 27 11 108 6 112 -7z m43 0
c0 -2 -7 -4 -15 -4 -8 0 -15 4 -15 10 0 5 7 7 15 4 8 -4 15 -8 15 -10z m40 1
c0 -8 -4 -15 -10 -15 -5 0 -10 7 -10 15 0 8 5 15 10 15 6 0 10 -7 10 -15z m30
0 c0 -8 -4 -15 -10 -15 -5 0 -10 7 -10 15 0 8 5 15 10 15 6 0 10 -7 10 -15z
m-666 -4 c3 -5 -5 -11 -19 -13 -28 -6 -35 8 -7 15 9 3 18 5 19 6 1 0 4 -3 7
-8z m311 -1 c-3 -5 -13 -10 -21 -10 -8 0 -14 5 -14 10 0 6 9 10 21 10 11 0 17
-4 14 -10z m285 -31 c0 -5 -16 -9 -35 -9 -36 0 -48 16 -17 22 23 5 52 -2 52
-13z m-320 2 c0 -6 -4 -12 -10 -16 -13 -8 -61 5 -54 16 7 12 64 12 64 0z m80
0 c0 -13 -20 -18 -47 -13 -36 7 -27 22 12 22 19 0 35 -4 35 -9z m70 -2 c0 -5
-13 -9 -30 -9 -16 0 -30 4 -30 8 0 5 14 9 30 10 17 0 30 -4 30 -9z m-820 -19
c0 -5 -9 -10 -20 -10 -11 0 -20 5 -20 10 0 6 9 10 20 10 11 0 20 -4 20 -10z
m25 0 c3 -5 1 -10 -4 -10 -6 0 -11 5 -11 10 0 6 2 10 4 10 3 0 8 -4 11 -10z
m482 -16 c-3 -3 -12 -4 -19 -1 -8 3 -5 6 6 6 11 1 17 -2 13 -5z m123 -4 c0 -5
-4 -10 -10 -10 -5 0 -10 5 -10 10 0 6 5 10 10 10 6 0 10 -4 10 -10z m70 -2 c0
-11 -12 -10 -30 2 -12 7 -10 9 8 7 12 0 22 -5 22 -9z m297 -22 c15 -14 -13
-21 -90 -21 -99 -1 -116 5 -56 19 47 12 135 13 146 2z m63 -6 c0 -21 -19 -28
-21 -7 0 10 -2 10 -6 0 -7 -18 -23 -16 -23 1 0 13 13 20 43 25 4 0 7 -8 7 -19z
m-1910 0 c0 -5 -4 -10 -10 -10 -5 0 -10 5 -10 10 0 6 5 10 10 10 6 0 10 -4 10
-10z m1550 0 c0 -5 -4 -10 -10 -10 -5 0 -10 5 -10 10 0 6 5 10 10 10 6 0 10
-4 10 -10z m85 0 c3 -5 1 -10 -4 -10 -6 0 -11 5 -11 10 0 6 2 10 4 10 3 0 8
-4 11 -10z m313 -1 c-2 -6 -8 -10 -13 -10 -5 0 -11 4 -13 10 -2 6 4 11 13 11
9 0 15 -5 13 -11z m-578 -23 c0 -11 -19 -15 -25 -6 -3 5 1 10 9 10 9 0 16 -2
16 -4z m-550 -20 c0 -3 -4 -8 -10 -11 -5 -3 -10 -1 -10 4 0 6 5 11 10 11 6 0
10 -2 10 -4z m-850 -16 c0 -5 -7 -10 -15 -10 -8 0 -15 5 -15 10 0 6 7 10 15
10 8 0 15 -4 15 -10z m1685 -10 c-3 -5 -13 -10 -21 -10 -8 0 -14 5 -14 10 0 6
9 10 21 10 11 0 17 -4 14 -10z m-225 -10 c0 -5 -7 -10 -15 -10 -8 0 -15 5 -15
10 0 6 7 10 15 10 8 0 15 -4 15 -10z m100 0 c0 -5 -4 -10 -10 -10 -5 0 -10 5
-10 10 0 6 5 10 10 10 6 0 10 -4 10 -10z m220 0 c0 -5 -4 -10 -10 -10 -5 0
-10 5 -10 10 0 6 5 10 10 10 6 0 10 -4 10 -10z m-1030 -30 c12 -8 9 -10 -13
-10 -16 0 -26 4 -22 10 8 12 16 12 35 0z m1160 -14 c0 -7 -9 -16 -20 -19 -22
-6 -23 -5 -14 17 8 20 34 21 34 2z m-1993 -11 c2 -6 -20 -9 -57 -7 -33 2 -60
8 -60 13 0 12 113 7 117 -6z m73 1 c0 -9 -8 -12 -25 -8 -14 2 -25 8 -25 13 0
5 11 9 25 9 14 0 25 -6 25 -14z m50 4 c0 -5 -4 -10 -10 -10 -5 0 -10 5 -10 10
0 6 5 10 10 10 6 0 10 -4 10 -10z m1280 0 c0 -5 -5 -10 -11 -10 -5 0 -7 5 -4
10 3 6 8 10 11 10 2 0 4 -4 4 -10z m-1177 -7 c-7 -2 -19 -2 -25 0 -7 3 -2 5
12 5 14 0 19 -2 13 -5z m1407 -3 c0 -5 -4 -10 -10 -10 -5 0 -10 5 -10 10 0 6
5 10 10 10 6 0 10 -4 10 -10z m-700 -10 c0 -5 -20 -10 -44 -10 -25 0 -48 5
-51 10 -4 6 13 10 44 10 28 0 51 -4 51 -10z m-1144 -37 c-10 -10 -19 5 -10 18
6 11 8 11 12 0 2 -7 1 -15 -2 -18z m1779 6 c0 -7 -8 -15 -17 -17 -18 -3 -25
18 -11 32 10 10 28 1 28 -15z m355 5 c0 -8 -4 -12 -10 -9 -5 3 -10 10 -10 16
0 5 5 9 10 9 6 0 10 -7 10 -16z m-1100 -4 c0 -5 -5 -10 -11 -10 -5 0 -7 5 -4
10 3 6 8 10 11 10 2 0 4 -4 4 -10z m105 0 c3 -5 2 -10 -4 -10 -5 0 -13 5 -16
10 -3 6 -2 10 4 10 5 0 13 -4 16 -10z m-320 -9 c-3 -6 17 -12 47 -14 l53 -3
-62 -2 c-50 -2 -63 1 -63 13 0 8 7 15 16 15 8 0 13 -4 9 -9z m-450 -11 c-3 -5
-10 -10 -16 -10 -5 0 -9 5 -9 10 0 6 7 10 16 10 8 0 12 -4 9 -10z m878 -7 c-7
-2 -21 -2 -30 0 -10 3 -4 5 12 5 17 0 24 -2 18 -5z m527 -13 c0 -5 -4 -10 -10
-10 -5 0 -10 5 -10 10 0 6 5 10 10 10 6 0 10 -4 10 -10z m365 1 c3 -5 1 -12
-5 -16 -5 -3 -10 1 -10 9 0 18 6 21 15 7z m-2188 -23 c-3 -8 -6 -5 -6 6 -1 11
2 17 5 13 3 -3 4 -12 1 -19z m2233 12 c0 -5 -4 -10 -10 -10 -5 0 -10 5 -10 10
0 6 5 10 10 10 6 0 10 -4 10 -10z m-1923 -6 c-3 -3 -12 -4 -19 -1 -8 3 -5 6 6
6 11 1 17 -2 13 -5z m1613 -14 c0 -5 -2 -10 -4 -10 -3 0 -8 5 -11 10 -3 6 -1
10 4 10 6 0 11 -4 11 -10z m370 -14 c0 -2 -7 -9 -15 -16 -13 -11 -14 -10 -9 4
5 14 24 23 24 12z m-370 -16 c0 -5 -9 -10 -21 -10 -11 0 -17 5 -14 10 3 6 13
10 21 10 8 0 14 -4 14 -10z m-1360 -20 c0 -5 -4 -10 -10 -10 -5 0 -10 5 -10
10 0 6 5 10 10 10 6 0 10 -4 10 -10z m705 -20 c-3 -5 -11 -10 -16 -10 -6 0 -7
5 -4 10 3 6 11 10 16 10 6 0 7 -4 4 -10z m1009 -5 c-4 -8 -12 -15 -20 -15 -8
0 -14 7 -14 15 0 8 9 15 20 15 13 0 18 -5 14 -15z m-1866 -42 c16 -16 16 -16
-1 -10 -10 4 -23 7 -28 7 -5 0 -9 5 -9 10 0 15 20 12 38 -7z m812 -3 c0 -11
-4 -20 -10 -20 -5 0 -10 9 -10 20 0 11 5 20 10 20 6 0 10 -9 10 -20z m780 -10
c0 -5 -4 -10 -10 -10 -5 0 -10 5 -10 10 0 6 5 10 10 10 6 0 10 -4 10 -10z
m-880 -116 c0 -17 -22 -14 -28 4 -2 7 3 12 12 12 9 0 16 -7 16 -16z m1040 -28
c0 -3 -4 -8 -10 -11 -5 -3 -10 -1 -10 4 0 6 5 11 10 11 6 0 10 -2 10 -4z"/>
<path d="M3183 2650 c0 -30 2 -43 4 -27 2 15 2 39 0 55 -2 15 -4 2 -4 -28z"/>
<path d="M3193 2470 c0 -36 2 -50 4 -32 2 17 2 47 0 65 -2 17 -4 3 -4 -33z"/>
<path d="M915 2430 c-3 -5 1 -10 9 -10 9 0 16 -5 16 -12 0 -9 3 -9 12 0 10 10
10 15 -2 22 -19 12 -27 12 -35 0z"/>
<path d="M335 2300 c3 -5 8 -10 11 -10 2 0 4 5 4 10 0 6 -5 10 -11 10 -5 0 -7
-4 -4 -10z"/>
<path d="M3192 2270 c-1 -19 -5 -46 -8 -60 -5 -19 -4 -22 5 -14 8 7 11 30 8
60 -2 37 -4 41 -5 14z"/>
<path d="M3182 2150 c0 -14 2 -19 5 -12 2 6 2 18 0 25 -3 6 -5 1 -5 -13z"/>
<path d="M940 2059 c0 -5 5 -7 10 -4 6 3 10 8 10 11 0 2 -4 4 -10 4 -5 0 -10
-5 -10 -11z"/>
<path d="M790 1833 c0 -5 7 -17 15 -27 21 -28 19 -43 -7 -51 -21 -6 -20 -8 12
-15 19 -5 35 -8 36 -7 1 1 4 13 8 27 3 14 3 19 0 13 -6 -14 -25 -18 -22 -5 1
4 -6 22 -15 40 -17 31 -27 41 -27 25z"/>
<path d="M4604 1471 c3 -5 18 -11 33 -14 16 -3 37 -9 48 -13 l20 -6 -20 14
c-23 17 -89 32 -81 19z"/>
<path d="M4720 1440 c0 -6 7 -10 15 -10 8 0 15 2 15 4 0 2 -7 6 -15 10 -8 3
-15 1 -15 -4z"/>
<path d="M5018 1403 c7 -3 16 -2 19 1 4 3 -2 6 -13 5 -11 0 -14 -3 -6 -6z"/>
<path d="M4758 1243 c7 -3 16 -2 19 1 4 3 -2 6 -13 5 -11 0 -14 -3 -6 -6z"/>
<path d="M609 1221 c-36 -12 -69 -30 -111 -63 l-38 -30 0 -405 0 -405 50 7
c34 5 50 3 50 -4 0 -7 -20 -11 -50 -11 l-50 0 0 -155 0 -155 210 0 210 0 0 54
0 55 -92 -5 c-71 -4 -89 -3 -75 6 9 6 45 12 80 13 74 3 87 10 87 44 0 18 -4
24 -15 20 -8 -4 -49 -9 -92 -13 -103 -9 -87 11 21 25 44 6 82 14 85 17 3 4
-10 4 -29 1 -95 -16 -153 -19 -146 -9 4 6 34 14 67 18 41 5 56 10 47 16 -8 5
1 6 25 2 l37 -6 0 82 0 82 -27 -6 c-16 -3 -74 -8 -131 -12 -56 -4 -105 -11
-108 -15 -7 -12 -61 -11 -69 1 -10 16 51 40 94 36 23 -2 41 0 41 4 0 4 30 11
68 14 37 4 82 10 100 13 l32 5 0 312 c0 186 -4 326 -11 349 -14 52 -60 101
-107 115 -44 13 -114 14 -153 3z m71 -21 c0 -5 -4 -10 -10 -10 -5 0 -10 5 -10
10 0 6 5 10 10 10 6 0 10 -4 10 -10z m160 -198 c0 -4 -9 -8 -20 -8 -11 0 -20
4 -20 8 0 4 9 8 20 8 11 0 20 -4 20 -8z m-240 -17 c0 -8 -4 -15 -10 -15 -5 0
-10 7 -10 15 0 8 5 15 10 15 6 0 10 -7 10 -15z m40 -5 c0 -5 -4 -10 -10 -10
-5 0 -10 5 -10 10 0 6 5 10 10 10 6 0 10 -4 10 -10z m25 -800 c-28 -29 -85
-43 -85 -20 0 6 5 10 11 10 8 0 8 4 0 14 -13 16 4 22 68 25 l35 1 -29 -30z"/>
<path d="M1490 1217 c-47 -15 -103 -74 -118 -123 -8 -28 -12 -128 -12 -318 l0
-276 27 0 c42 0 296 41 318 52 11 5 30 10 43 11 l22 1 0 256 c-1 266 -6 307
-47 352 -45 51 -150 71 -233 45z m147 -14 c4 -12 -35 -29 -44 -19 -8 8 18 37
30 33 6 -2 12 -8 14 -14z m73 -63 c0 -5 -4 -10 -10 -10 -5 0 -10 5 -10 10 0 6
5 10 10 10 6 0 10 -4 10 -10z m0 -50 c0 -5 -4 -10 -10 -10 -5 0 -10 5 -10 10
0 6 5 10 10 10 6 0 10 -4 10 -10z m45 -30 c3 -5 1 -10 -5 -10 -6 0 -8 -4 -5
-10 4 -6 -1 -7 -12 -3 -16 6 -17 5 -3 -13 14 -18 14 -18 -2 -5 -24 19 -23 51
1 51 11 0 23 -4 26 -10z"/>
<path d="M5051 1119 c0 -15 -11 -34 -23 -43 -13 -9 -17 -14 -9 -10 7 4 34 12
60 19 42 12 43 13 14 14 -24 1 -33 6 -36 24 -4 20 -4 19 -6 -4z"/>
<path d="M3868 813 c6 -2 18 -2 25 0 6 3 1 5 -13 5 -14 0 -19 -2 -12 -5z"/>
<path d="M3818 803 c7 -3 16 -2 19 1 4 3 -2 6 -13 5 -11 0 -14 -3 -6 -6z"/>
<path d="M3768 793 c6 -2 18 -2 25 0 6 3 1 5 -13 5 -14 0 -19 -2 -12 -5z"/>
<path d="M3728 783 c7 -3 16 -2 19 1 4 3 -2 6 -13 5 -11 0 -14 -3 -6 -6z"/>
<path d="M3678 773 c6 -2 18 -2 25 0 6 3 1 5 -13 5 -14 0 -19 -2 -12 -5z"/>
<path d="M3455 735 c-88 -18 -149 -33 -135 -33 14 0 97 14 185 33 88 18 149
33 135 33 -14 0 -97 -15 -185 -33z"/>
<path d="M3280 718 c0 -9 -6 -19 -12 -21 -10 -4 -10 -6 0 -6 14 -1 28 26 18
36 -3 4 -6 -1 -6 -9z"/>
<path d="M3088 693 c7 -3 16 -2 19 1 4 3 -2 6 -13 5 -11 0 -14 -3 -6 -6z"/>
<path d="M3220 690 l-25 -8 24 -1 c47 -2 13 -12 -130 -36 -198 -34 -189 -31
-189 -60 0 -31 13 -32 152 -6 57 11 125 23 151 27 l48 6 -2 44 c-2 24 -3 44
-3 43 -1 -1 -12 -5 -26 -9z"/>
<path d="M3018 683 c6 -2 18 -2 25 0 6 3 1 5 -13 5 -14 0 -19 -2 -12 -5z"/>
<path d="M2968 673 c7 -3 16 -2 19 1 4 3 -2 6 -13 5 -11 0 -14 -3 -6 -6z"/>
<path d="M3153 673 c9 -2 23 -2 30 0 6 3 -1 5 -18 5 -16 0 -22 -2 -12 -5z"/>
<path d="M3098 663 c7 -3 16 -2 19 1 4 3 -2 6 -13 5 -11 0 -14 -3 -6 -6z"/>
<path d="M3038 653 c7 -3 16 -2 19 1 4 3 -2 6 -13 5 -11 0 -14 -3 -6 -6z"/>
<path d="M3443 613 c9 -2 25 -2 35 0 9 3 1 5 -18 5 -19 0 -27 -2 -17 -5z"/>
<path d="M2338 586 c-82 -12 -116 -27 -52 -22 76 6 144 19 144 27 0 5 -3 9 -7
8 -5 -1 -43 -6 -85 -13z"/>
<path d="M2355 540 c-82 -11 -105 -25 -105 -61 l0 -32 73 7 c105 10 107 11
107 57 0 25 -4 39 -12 38 -7 -1 -35 -5 -63 -9z"/>
<path d="M3176 528 c5 -8 2 -9 -11 -4 -15 6 -130 -9 -242 -30 -19 -4 -23 -11
-23 -39 0 -42 -2 -42 152 -16 145 25 198 46 198 78 0 20 -5 23 -41 23 -28 0
-38 -4 -33 -12z"/>
<path d="M1565 483 l-80 -12 95 6 c52 3 115 9 140 13 44 8 44 8 -15 7 -33 -1
-96 -7 -140 -14z"/>
<path d="M1433 463 c9 -2 25 -2 35 0 9 3 1 5 -18 5 -19 0 -27 -2 -17 -5z"/>
<path d="M1418 443 l-58 -4 0 -64 0 -64 28 4 c15 3 90 14 167 25 209 30 195
25 195 72 l0 41 -65 -7 c-150 -14 -200 -16 -180 -7 22 11 25 11 -87 4z"/>
<path d="M2398 433 c6 -2 18 -2 25 0 6 3 1 5 -13 5 -14 0 -19 -2 -12 -5z"/>
<path d="M2343 423 c9 -2 23 -2 30 0 6 3 -1 5 -18 5 -16 0 -22 -2 -12 -5z"/>
<path d="M803 413 c9 -2 23 -2 30 0 6 3 -1 5 -18 5 -16 0 -22 -2 -12 -5z"/>
<path d="M2273 413 c9 -2 23 -2 30 0 6 3 -1 5 -18 5 -16 0 -22 -2 -12 -5z"/>
<path d="M708 403 c6 -2 18 -2 25 0 6 3 1 5 -13 5 -14 0 -19 -2 -12 -5z"/>
<path d="M2375 405 c-5 -2 -36 -6 -67 -10 l-58 -6 0 -35 c0 -39 -3 -38 102
-22 l78 12 0 33 c0 28 -4 33 -22 32 -13 0 -27 -2 -33 -4z"/>
<path d="M3060 400 c-19 -4 -59 -13 -89 -19 -63 -13 -64 -14 -69 -48 l-3 -25
68 7 c37 4 65 4 61 0 -4 -4 -33 -10 -64 -14 -32 -3 -59 -12 -62 -18 -4 -14 38
-17 100 -7 32 6 39 12 49 43 6 20 20 48 31 64 11 15 18 26 16 26 -2 -1 -19 -5
-38 -9z"/>
<path d="M1680 334 l-65 -13 65 6 c36 3 67 7 69 9 11 10 -9 9 -69 -2z"/>
<path d="M1510 310 c-50 -11 1 -11 60 -1 41 8 42 8 10 8 -19 0 -51 -3 -70 -7z"/>
<path d="M2341 288 c-1 -43 -13 -54 -35 -32 -10 9 -24 13 -36 9 -18 -6 -20
-15 -20 -102 l0 -95 33 5 c17 3 58 9 90 13 l57 6 0 100 0 101 -36 -6 c-30 -5
-36 -3 -44 16 -7 19 -9 17 -9 -15z m79 -48 c0 -5 -5 -10 -11 -10 -5 0 -7 5 -4
10 3 6 8 10 11 10 2 0 4 -4 4 -10z m-75 -10 c-3 -5 -12 -10 -18 -10 -7 0 -6 4
3 10 19 12 23 12 15 0z m-52 -7 c-7 -2 -19 -2 -25 0 -7 3 -2 5 12 5 14 0 19
-2 13 -5z"/>
<path d="M1530 281 c-162 -26 -165 -26 -168 -52 -3 -25 -2 -26 61 -28 47 -1
67 2 77 14 10 12 16 13 26 4 11 -9 33 -9 92 0 138 21 132 19 132 57 0 41 8 41
-220 5z"/>
<path d="M1380 290 c-16 -6 -6 -7 30 -3 30 3 57 7 59 9 8 7 -64 2 -89 -6z"/>
<path d="M2970 256 l-65 -11 0 -122 0 -123 140 0 140 0 -30 19 c-70 42 -118
127 -116 204 1 26 0 47 -1 46 -2 -1 -32 -6 -68 -13z"/>
<path d="M1670 160 c-36 -5 -120 -11 -187 -15 l-123 -8 0 -66 c0 -66 0 -67 28
-66 15 0 29 3 32 6 5 5 90 20 278 50 68 10 73 13 68 33 -3 11 -6 33 -6 49 0
16 -5 26 -12 26 -7 -1 -42 -5 -78 -9z m37 -42 c-3 -8 -6 -5 -6 6 -1 11 2 17 5
13 3 -3 4 -12 1 -19z"/>
<path d="M2365 65 c-49 -13 -49 -13 -15 -15 l35 -2 -40 -9 c-27 -7 -41 -6 -43
1 -2 5 -13 10 -25 9 -21 0 -21 -1 -2 -8 19 -8 19 -8 -2 -15 -51 -16 -20 -27
67 -24 85 3 90 4 90 25 0 12 -6 24 -12 26 -10 4 -10 6 0 6 6 1 12 6 12 11 0
12 1 12 -65 -5z"/>
<path d="M1665 39 c-55 -9 -129 -20 -164 -24 -36 -3 -67 -8 -70 -10 -2 -3 73
-5 167 -5 l172 0 0 30 c0 17 -1 29 -2 29 -2 -1 -48 -10 -103 -20z"/>
</g>
</svg>
